#N canvas 233 35 1252 813 12;
#X obj 350 648 output~;
#X obj 350 500 osc~;
#X obj 350 598 *~;
#X floatatom 367 568 5 0 0 0 - - -, f 5;
#X obj 420 558 tgl 15 0 empty empty empty 17 7 0 10 #fcfcfc #000000
#000000 1 1;
#X obj 430 340 osc~;
#X floatatom 430 310 5 0 0 0 - - -, f 5;
#X text 380 500 portadora;
#X text 465 340 Moduladora;
#X obj 350 430 +~;
#X floatatom 350 320 5 0 0 0 - - -, f 5;
#X floatatom 590 370 5 0 0 0 - - -, f 5;
#X obj 470 400 *~;
#X text 260 320 frec central;
#X text 469 311 Frecuencia de la moduladora;
#X text 630 370 indice de modulacion (brillo);
#X obj 498 227 unpack i i;
#X floatatom 498 260 5 0 0 0 - - -, f 5;
#X floatatom 589 264 5 0 0 0 - - -, f 5;
#X floatatom 620 228 5 0 0 0 - - -, f 5;
#X obj 300 60 dumpOSC 4443;
#X obj 280 100 OSCroute /moduladora /portadora;
#X connect 1 0 2 0;
#X connect 2 0 0 0;
#X connect 2 0 0 1;
#X connect 3 0 2 1;
#X connect 4 0 3 0;
#X connect 5 0 12 0;
#X connect 6 0 5 0;
#X connect 9 0 1 0;
#X connect 10 0 9 0;
#X connect 11 0 12 1;
#X connect 12 0 9 1;
#X connect 16 0 17 0;
#X connect 16 1 18 0;
#X connect 17 0 6 0;
#X connect 18 0 11 0;
#X connect 19 0 10 0;
#X connect 20 0 21 0;
#X connect 21 0 16 0;
#X connect 21 1 19 0;
